<svg width="74" height="74" viewBox="0 0 74 74" fill="none" xmlns="http://www.w3.org/2000/svg">
<g clip-path="url(#clip0_1_65)">
<path d="M37 74C57.4345 74 74 57.4345 74 37C74 16.5655 57.4345 0 37 0C16.5655 0 0 16.5655 0 37C0 57.4345 16.5655 74 37 74Z" fill="#121212"/>
<path d="M37.029 57.9093C48.881 57.9093 58.489 48.3013 58.489 36.4493C58.489 24.5972 48.881 14.9893 37.029 14.9893C25.1769 14.9893 15.569 24.5972 15.569 36.4493C15.569 48.3013 25.1769 57.9093 37.029 57.9093Z" fill="#14C321" stroke="#050505" stroke-width="1.5"/>
<mask id="mask0_1_65" style="mask-type:alpha" maskUnits="userSpaceOnUse" x="14" y="14" width="46" height="45">
<path d="M37.029 57.9093C48.881 57.9093 58.489 48.3013 58.489 36.4493C58.489 24.5972 48.881 14.9893 37.029 14.9893C25.1769 14.9893 15.569 24.5972 15.569 36.4493C15.569 48.3013 25.1769 57.9093 37.029 57.9093Z" fill="white" stroke="#060606" stroke-width="1.5"/>
</mask>
<g mask="url(#mask0_1_65)">
<path d="M33.7142 54.134C43.7674 54.134 51.9172 45.9842 51.9172 35.931C51.9172 25.8778 43.7674 17.728 33.7142 17.728C23.661 17.728 15.5112 25.8778 15.5112 35.931C15.5112 45.9842 23.661 54.134 33.7142 54.134Z" fill="white"/>
</g>
<path d="M37.029 57.9093C48.881 57.9093 58.489 48.3013 58.489 36.4493C58.489 24.5972 48.881 14.9893 37.029 14.9893C25.1769 14.9893 15.569 24.5972 15.569 36.4493C15.569 48.3013 25.1769 57.9093 37.029 57.9093Z" stroke="#050505" stroke-width="1.5"/>
<path d="M37.0289 57.9093C44.0265 57.9093 49.6992 48.3013 49.6992 36.4493C49.6992 24.5972 44.0265 14.9893 37.0289 14.9893C30.0312 14.9893 24.3585 24.5972 24.3585 36.4493C24.3585 48.3013 30.0312 57.9093 37.0289 57.9093Z" stroke="#050505" stroke-width="1.5"/>
<path d="M15.511 36.4493C15.511 42.2245 25.119 46.9062 36.971 46.9062C48.8231 46.9062 58.431 42.2245 58.431 36.4493C58.431 30.6741 48.8231 25.9924 36.971 25.9924C25.119 25.9924 15.511 30.6741 15.511 36.4493Z" stroke="#050505" stroke-width="1.5"/>
<path d="M51.4471 37.8832C52.1071 36.3875 51.8596 34.1055 50.8943 32.7862C49.929 31.4668 48.6115 31.6098 47.9515 33.1054C47.2916 34.601 47.5391 36.883 48.5044 38.2024C49.4697 39.5217 50.7872 39.3788 51.4471 37.8832Z" fill="#14C321" stroke="#050505" stroke-width="1.5"/>
<path d="M25.3957 48.3861C26.8115 49.2035 27.9591 48.5408 27.9591 46.9061C27.9591 45.2713 26.8115 43.2835 25.3957 42.4661C23.98 41.6487 22.8323 42.3113 22.8323 43.9461C22.8323 45.5808 23.98 47.5687 25.3957 48.3861Z" fill="#14C321" stroke="#050505" stroke-width="1.5"/>
<path d="M23.8558 27.392C23.9382 28.7954 24.957 29.3064 26.1312 28.5333C27.3054 27.7602 28.1905 25.9957 28.1081 24.5922C28.0257 23.1888 27.007 22.6778 25.8327 23.4509C24.6585 24.224 23.7734 25.9885 23.8558 27.392Z" fill="#14C321" stroke="#050505" stroke-width="1.5"/>
</g>
<defs>
<clipPath id="clip0_1_65">
<rect width="74" height="74" fill="white"/>
</clipPath>
</defs>
</svg>
