<svg width="85" height="85" viewBox="0 0 85 85" fill="none" xmlns="http://www.w3.org/2000/svg">
<g clip-path="url(#clip0_1_7)">
<path d="M42.5 85C65.9721 85 85 65.9721 85 42.5C85 19.0279 65.9721 0 42.5 0C19.0279 0 0 19.0279 0 42.5C0 65.9721 19.0279 85 42.5 85Z" fill="#060606"/>
<path fill-rule="evenodd" clip-rule="evenodd" d="M23.8321 13.992C25.0518 13.2878 27.0292 13.2878 28.2489 13.992L47.0845 24.8668C47.2658 24.9714 47.4201 25.0858 47.5475 25.2069L63.8271 34.6059C65.0466 35.3101 66.0354 37.0226 66.0354 38.4309V60.6614C66.0354 60.6701 66.0354 60.6788 66.0353 60.6875V65.8204C66.0353 67.2286 65.0466 68.9412 63.8269 69.6454L60.7861 71.4009C59.5664 72.1051 58.5777 71.5343 58.5777 70.1259V58.9057L31.9467 43.5303C30.7271 42.8261 29.7383 41.1136 29.7383 39.7053V25.0835L19.3881 19.1078C18.1685 18.4036 18.1685 17.2619 19.3881 16.5578L23.8321 13.992Z" fill="white"/>
<path d="M47.5476 25.207L47.1083 25.669L47.1632 25.7213L47.2289 25.7592L47.5476 25.207ZM66.0354 60.6875L65.3979 60.682V60.6875H66.0354ZM58.5778 58.9058H59.2153V58.5377L58.8965 58.3537L58.5778 58.9058ZM29.7384 25.0836H30.3759V24.7155L30.0572 24.5314L29.7384 25.0836ZM28.5677 13.4399C27.8381 13.0188 26.9221 12.8264 26.0406 12.8264C25.159 12.8264 24.243 13.0188 23.5134 13.4399L24.1509 14.5442C24.641 14.2612 25.3235 14.1014 26.0406 14.1014C26.7575 14.1014 27.4401 14.2612 27.9302 14.5442L28.5677 13.4399ZM47.4033 24.3147L28.5677 13.4399L27.9302 14.5442L46.7658 25.4189L47.4033 24.3147ZM47.987 24.7451C47.8187 24.5851 47.6226 24.4413 47.4033 24.3147L46.7658 25.4189C46.9091 25.5016 47.0218 25.5867 47.1083 25.669L47.987 24.7451ZM64.1459 34.0539L47.8664 24.6549L47.2289 25.7592L63.5084 35.1581L64.1459 34.0539ZM66.6729 38.431C66.6729 37.5886 66.3815 36.6991 65.9408 35.9357C65.5 35.1722 64.8754 34.4752 64.1459 34.0539L63.5084 35.1581C63.9985 35.4411 64.4781 35.9522 64.8366 36.5732C65.195 37.1941 65.3979 37.865 65.3979 38.431H66.6729ZM66.6729 60.6614V38.431H65.3979V60.6614H66.6729ZM66.6729 60.693C66.6729 60.6826 66.6729 60.6721 66.6729 60.6614H65.3979C65.3979 60.6682 65.3979 60.6751 65.3979 60.682L66.6729 60.693ZM65.3979 60.6875V65.8204H66.6729V60.6875H65.3979ZM65.3979 65.8204C65.3979 66.3864 65.195 67.0573 64.8364 67.6782C64.478 68.2992 63.9983 68.8104 63.5082 69.0934L64.1457 70.1975C64.8753 69.7763 65.4999 69.0792 65.9407 68.3157C66.3814 67.5523 66.6729 66.6628 66.6729 65.8204H65.3979ZM63.5082 69.0934L60.4674 70.8489L61.1049 71.9531L64.1457 70.1975L63.5082 69.0934ZM60.4674 70.8489C59.9738 71.134 59.6763 71.0803 59.5434 71.0037C59.4105 70.9269 59.2153 70.6961 59.2153 70.126H57.9403C57.9403 70.9643 58.2395 71.7231 58.9059 72.1078C59.5723 72.4926 60.3789 72.3722 61.1049 71.9531L60.4674 70.8489ZM59.2153 70.126V58.9058H57.9403V70.126H59.2153ZM31.628 44.0824L58.259 59.4578L58.8965 58.3537L32.2655 42.9782L31.628 44.0824ZM29.1009 39.7054C29.1009 40.5477 29.3924 41.4372 29.8332 42.2006C30.2739 42.9641 30.8985 43.6612 31.628 44.0824L32.2655 42.9782C31.7754 42.6952 31.2959 42.1841 30.9373 41.5631C30.5788 40.9422 30.3759 40.2713 30.3759 39.7054H29.1009ZM29.1009 25.0836V39.7054H30.3759V25.0836H29.1009ZM19.0695 19.6599L29.4197 25.6357L30.0572 24.5314L19.707 18.5558L19.0695 19.6599ZM19.0695 16.0058C18.3435 16.4249 17.8359 17.0633 17.8359 17.8328C17.8359 18.6023 18.3435 19.2408 19.0695 19.6599L19.707 18.5558C19.2133 18.2707 19.1109 17.9863 19.1109 17.8328C19.1109 17.6794 19.2133 17.3949 19.707 17.1099L19.0695 16.0058ZM23.5134 13.4399L19.0695 16.0058L19.707 17.1099L24.1509 14.5442L23.5134 13.4399Z" fill="#060606"/>
<mask id="mask0_1_7" style="mask-type:alpha" maskUnits="userSpaceOnUse" x="17" y="12" width="50" height="61">
<path fill-rule="evenodd" clip-rule="evenodd" d="M23.8322 13.992C25.0519 13.2878 27.0293 13.2878 28.249 13.992L47.0846 24.8668C47.2659 24.9714 47.4202 25.0858 47.5477 25.2069L63.8272 34.6059C65.0468 35.3101 66.0355 37.0226 66.0355 38.4309V60.6614C66.0355 60.6701 66.0355 60.6788 66.0354 60.6875V65.8204C66.0354 67.2286 65.0467 68.9412 63.827 69.6454L60.7862 71.4009C59.5666 72.1051 58.5779 71.5343 58.5779 70.1259V58.9057L31.9468 43.5303C30.7272 42.8261 29.7385 41.1136 29.7385 39.7053V25.0835L19.3883 19.1078C18.1686 18.4036 18.1686 17.2619 19.3883 16.5578L23.8322 13.992Z" fill="#71A407"/>
<path d="M47.5476 25.207L47.1083 25.669L47.1632 25.7213L47.2289 25.7592L47.5476 25.207ZM66.0354 60.6875L65.3979 60.682V60.6875H66.0354ZM58.5778 58.9058H59.2153V58.5377L58.8965 58.3537L58.5778 58.9058ZM29.7384 25.0836H30.3759V24.7155L30.0572 24.5314L29.7384 25.0836ZM28.5677 13.4399C27.8381 13.0188 26.9221 12.8264 26.0406 12.8264C25.159 12.8264 24.243 13.0188 23.5134 13.4399L24.1509 14.5442C24.641 14.2612 25.3235 14.1014 26.0406 14.1014C26.7575 14.1014 27.4401 14.2612 27.9302 14.5442L28.5677 13.4399ZM47.4033 24.3147L28.5677 13.4399L27.9302 14.5442L46.7658 25.4189L47.4033 24.3147ZM47.987 24.7451C47.8187 24.5851 47.6226 24.4413 47.4033 24.3147L46.7658 25.4189C46.9091 25.5016 47.0218 25.5867 47.1083 25.669L47.987 24.7451ZM64.1459 34.0539L47.8664 24.6549L47.2289 25.7592L63.5084 35.1581L64.1459 34.0539ZM66.6729 38.431C66.6729 37.5886 66.3815 36.6991 65.9408 35.9357C65.5 35.1722 64.8754 34.4752 64.1459 34.0539L63.5084 35.1581C63.9985 35.4411 64.4781 35.9522 64.8366 36.5732C65.195 37.1941 65.3979 37.865 65.3979 38.431H66.6729ZM66.6729 60.6614V38.431H65.3979V60.6614H66.6729ZM66.6729 60.693C66.6729 60.6826 66.6729 60.6721 66.6729 60.6614H65.3979C65.3979 60.6682 65.3979 60.6751 65.3979 60.682L66.6729 60.693ZM65.3979 60.6875V65.8204H66.6729V60.6875H65.3979ZM65.3979 65.8204C65.3979 66.3864 65.195 67.0573 64.8364 67.6782C64.478 68.2992 63.9983 68.8104 63.5082 69.0934L64.1457 70.1975C64.8753 69.7763 65.4999 69.0792 65.9407 68.3157C66.3814 67.5523 66.6729 66.6628 66.6729 65.8204H65.3979ZM63.5082 69.0934L60.4674 70.8489L61.1049 71.9531L64.1457 70.1975L63.5082 69.0934ZM60.4674 70.8489C59.9738 71.134 59.6763 71.0803 59.5434 71.0037C59.4105 70.9269 59.2153 70.6961 59.2153 70.126H57.9403C57.9403 70.9643 58.2395 71.7231 58.9059 72.1078C59.5723 72.4926 60.3789 72.3722 61.1049 71.9531L60.4674 70.8489ZM59.2153 70.126V58.9058H57.9403V70.126H59.2153ZM31.628 44.0824L58.259 59.4578L58.8965 58.3537L32.2655 42.9782L31.628 44.0824ZM29.1009 39.7054C29.1009 40.5477 29.3924 41.4372 29.8332 42.2006C30.2739 42.9641 30.8985 43.6612 31.628 44.0824L32.2655 42.9782C31.7754 42.6952 31.2959 42.1841 30.9373 41.5631C30.5788 40.9422 30.3759 40.2713 30.3759 39.7054H29.1009ZM29.1009 25.0836V39.7054H30.3759V25.0836H29.1009ZM19.0695 19.6599L29.4197 25.6357L30.0572 24.5314L19.707 18.5558L19.0695 19.6599ZM19.0695 16.0058C18.3435 16.4249 17.8359 17.0633 17.8359 17.8328C17.8359 18.6023 18.3435 19.2408 19.0695 19.6599L19.707 18.5558C19.2133 18.2707 19.1109 17.9863 19.1109 17.8328C19.1109 17.6794 19.2133 17.3949 19.707 17.1099L19.0695 16.0058ZM23.5134 13.4399L19.0695 16.0058L19.707 17.1099L24.1509 14.5442L23.5134 13.4399Z" fill="#060606"/>
</mask>
<g mask="url(#mask0_1_7)">
<path d="M57.004 43.8298C57.004 42.4214 57.9927 40.709 59.2124 40.0048L67.9278 34.9729V67.4426C67.9278 68.8509 66.9391 70.5634 65.7194 71.2676L59.2124 75.0244C57.9927 75.7286 57.004 75.1578 57.004 73.7494V43.8298Z" fill="#00FF4D"/>
</g>
<path d="M47.5476 25.207L47.1083 25.669L47.1632 25.7213L47.2289 25.7592L47.5476 25.207ZM66.0354 60.6875L65.3979 60.682V60.6875H66.0354ZM58.5778 58.9058H59.2153V58.5377L58.8965 58.3537L58.5778 58.9058ZM29.7384 25.0836H30.3759V24.7155L30.0572 24.5314L29.7384 25.0836ZM28.5677 13.4399C27.8381 13.0188 26.9221 12.8264 26.0406 12.8264C25.159 12.8264 24.243 13.0188 23.5134 13.4399L24.1509 14.5442C24.641 14.2612 25.3235 14.1014 26.0406 14.1014C26.7575 14.1014 27.4401 14.2612 27.9302 14.5442L28.5677 13.4399ZM47.4033 24.3147L28.5677 13.4399L27.9302 14.5442L46.7658 25.4189L47.4033 24.3147ZM47.987 24.7451C47.8187 24.5851 47.6226 24.4413 47.4033 24.3147L46.7658 25.4189C46.9091 25.5016 47.0218 25.5867 47.1083 25.669L47.987 24.7451ZM64.1459 34.0539L47.8664 24.6549L47.2289 25.7592L63.5084 35.1581L64.1459 34.0539ZM66.6729 38.431C66.6729 37.5886 66.3815 36.6991 65.9408 35.9357C65.5 35.1722 64.8754 34.4752 64.1459 34.0539L63.5084 35.1581C63.9985 35.4411 64.4781 35.9522 64.8366 36.5732C65.195 37.1941 65.3979 37.865 65.3979 38.431H66.6729ZM66.6729 60.6614V38.431H65.3979V60.6614H66.6729ZM66.6729 60.693C66.6729 60.6826 66.6729 60.6721 66.6729 60.6614H65.3979C65.3979 60.6682 65.3979 60.6751 65.3979 60.682L66.6729 60.693ZM65.3979 60.6875V65.8204H66.6729V60.6875H65.3979ZM65.3979 65.8204C65.3979 66.3864 65.195 67.0573 64.8364 67.6782C64.478 68.2992 63.9983 68.8104 63.5082 69.0934L64.1457 70.1975C64.8753 69.7763 65.4999 69.0792 65.9407 68.3157C66.3814 67.5523 66.6729 66.6628 66.6729 65.8204H65.3979ZM63.5082 69.0934L60.4674 70.8489L61.1049 71.9531L64.1457 70.1975L63.5082 69.0934ZM60.4674 70.8489C59.9738 71.134 59.6763 71.0803 59.5434 71.0037C59.4105 70.9269 59.2153 70.6961 59.2153 70.126H57.9403C57.9403 70.9643 58.2395 71.7231 58.9059 72.1078C59.5723 72.4926 60.3789 72.3722 61.1049 71.9531L60.4674 70.8489ZM59.2153 70.126V58.9058H57.9403V70.126H59.2153ZM31.628 44.0824L58.259 59.4578L58.8965 58.3537L32.2655 42.9782L31.628 44.0824ZM29.1009 39.7054C29.1009 40.5477 29.3924 41.4372 29.8332 42.2006C30.2739 42.9641 30.8985 43.6612 31.628 44.0824L32.2655 42.9782C31.7754 42.6952 31.2959 42.1841 30.9373 41.5631C30.5788 40.9422 30.3759 40.2713 30.3759 39.7054H29.1009ZM29.1009 25.0836V39.7054H30.3759V25.0836H29.1009ZM19.0695 19.6599L29.4197 25.6357L30.0572 24.5314L19.707 18.5558L19.0695 19.6599ZM19.0695 16.0058C18.3435 16.4249 17.8359 17.0633 17.8359 17.8328C17.8359 18.6023 18.3435 19.2408 19.0695 19.6599L19.707 18.5558C19.2133 18.2707 19.1109 17.9863 19.1109 17.8328C19.1109 17.6794 19.2133 17.3949 19.707 17.1099L19.0695 16.0058ZM23.5134 13.4399L19.0695 16.0058L19.707 17.1099L24.1509 14.5442L23.5134 13.4399Z" fill="#060606"/>
<path fill-rule="evenodd" clip-rule="evenodd" d="M21.0209 17.5561C18.9882 16.3825 17.3403 17.334 17.3403 19.6811V44.2335C17.3403 46.5807 18.9882 49.4349 21.0209 50.6085L34.3742 58.318C34.6372 58.4698 34.8802 58.7721 35.0117 59.111L37.1152 64.5328C37.9652 66.7235 40.0902 67.9503 40.9402 66.7411L43.0438 63.7484C43.1753 63.5614 43.4183 63.5396 43.6813 63.6915L57.0351 71.4013C59.0679 72.5749 60.7157 71.6235 60.7157 69.2763V44.7239C60.7157 42.3767 59.0679 39.5225 57.0351 38.3489L21.0209 17.5561Z" fill="#00FF4D"/>
<path d="M17.8924 19.9999C17.8924 18.0048 19.2931 17.1961 21.0209 18.1937V16.9187C18.6832 15.569 16.7882 16.6631 16.7882 19.3624L17.8924 19.9999ZM17.8924 44.5522V19.9999L16.7882 19.3624V43.9147L17.8924 44.5522ZM21.0209 49.971C19.2931 48.9734 17.8924 46.5474 17.8924 44.5522L16.7882 43.9147C16.7882 46.614 18.6832 49.8964 21.0209 51.246V49.971ZM34.3741 57.6805L21.0209 49.971V51.246L34.3741 58.9555V57.6805ZM37.5933 64.49L35.4897 59.0683L34.5335 59.1537L36.6371 64.5754L37.5933 64.49ZM40.4621 66.1463C39.8246 67.0533 38.2308 66.1331 37.5933 64.49L36.6371 64.5754C37.6996 67.3139 40.3558 68.8474 41.4183 67.3359L40.4621 66.1463ZM42.5656 63.1536L40.4621 66.1463L41.4183 67.3359L43.5219 64.3432L42.5656 63.1536ZM57.035 70.7638L43.6813 63.054V64.329L57.035 72.0388V70.7638ZM60.1635 68.9575C60.1635 70.9526 58.7628 71.7613 57.035 70.7638V72.0388C59.3727 73.3884 61.2677 72.2943 61.2677 69.595L60.1635 68.9575ZM60.1635 44.4052V68.9575L61.2677 69.595V45.0427L60.1635 44.4052ZM57.035 38.9864C58.7628 39.984 60.1635 42.4101 60.1635 44.4052L61.2677 45.0427C61.2677 42.3433 59.3727 39.0611 57.035 37.7114V38.9864ZM21.0209 18.1937L57.035 38.9864V37.7114L21.0209 16.9187V18.1937ZM43.5219 64.3432C43.5548 64.2965 43.6156 64.291 43.6813 64.329V63.054C43.2211 62.7882 42.7957 62.8262 42.5656 63.1536L43.5219 64.3432ZM34.3741 58.9555C34.4398 58.9934 34.5006 59.069 34.5335 59.1537L35.4897 59.0683C35.2596 58.4752 34.8343 57.9462 34.3741 57.6805V58.9555Z" fill="#060606"/>
<path d="M46.1783 54.9747C46.4952 56.0306 46.6865 57.0649 46.7462 58.0386L31.3097 49.1263C31.3694 48.2215 31.5607 47.4081 31.8776 46.7182C32.2659 45.8727 32.8354 45.229 33.5536 44.8241C34.2719 44.4193 35.125 44.2613 36.0644 44.3597C37.0038 44.4581 38.0108 44.8109 39.0279 45.3981C40.0451 45.9854 41.0521 46.7954 41.9915 47.7817C42.9309 48.7679 43.784 49.911 44.5023 51.1453C45.2205 52.3795 45.79 53.6808 46.1783 54.9747Z" fill="#060606" stroke="#060606" stroke-width="1.5"/>
<path d="M42.4316 41.4716C42.4316 43.6045 40.9144 44.4704 39.0289 43.3819C37.1434 42.2933 35.6262 39.6754 35.6262 37.5426C35.6262 35.4098 37.1434 34.5438 39.0289 35.6324C40.9144 36.721 42.4316 39.3389 42.4316 41.4716Z" fill="#060606" stroke="#060606" stroke-width="1.5"/>
</g>
<defs>
<clipPath id="clip0_1_7">
<rect width="85" height="85" fill="white"/>
</clipPath>
</defs>
</svg>
