<svg xmlns="http://www.w3.org/2000/svg" xmlns:xlink="http://www.w3.org/1999/xlink" width="940" zoomAndPan="magnify" viewBox="0 0 705 591.000005" height="788" preserveAspectRatio="xMidYMid meet" version="1.0"><defs><g/></defs><g fill="#000000" fill-opacity="0.4"><g transform="translate(108.839507, 298.851922)"><g><path d="M 22.09375 -18.046875 L 38.203125 -18.046875 L 34.59375 0 L 27.25 0 L 26.0625 -3.984375 L 25.828125 -3.984375 C 24.742188 -2.734375 23.460938 -1.671875 21.984375 -0.796875 C 20.515625 0.0664062 18.597656 0.5 16.234375 0.5 C 14.410156 0.5 12.660156 0.195312 10.984375 -0.40625 C 9.304688 -1.007812 7.8125 -1.960938 6.5 -3.265625 C 5.195312 -4.566406 4.148438 -6.273438 3.359375 -8.390625 C 2.566406 -10.515625 2.171875 -13.066406 2.171875 -16.046875 C 2.171875 -19.285156 2.671875 -22.351562 3.671875 -25.25 C 4.671875 -28.15625 6.164062 -30.71875 8.15625 -32.9375 C 10.144531 -35.164062 12.628906 -36.921875 15.609375 -38.203125 C 18.597656 -39.484375 22.082031 -40.125 26.0625 -40.125 C 29.132812 -40.125 31.8125 -39.769531 34.09375 -39.0625 C 36.375 -38.363281 38.53125 -37.578125 40.5625 -36.703125 L 38.203125 -24.640625 L 27.6875 -24.640625 C 27.726562 -25.097656 27.789062 -25.632812 27.875 -26.25 C 27.957031 -26.875 28.019531 -27.53125 28.0625 -28.21875 C 28.101562 -28.90625 28.144531 -29.578125 28.1875 -30.234375 C 28.226562 -30.898438 28.25 -31.484375 28.25 -31.984375 C 28.25 -32.316406 28.226562 -32.695312 28.1875 -33.125 C 28.144531 -33.5625 28.039062 -33.988281 27.875 -34.40625 C 27.707031 -34.820312 27.457031 -35.164062 27.125 -35.4375 C 26.789062 -35.707031 26.316406 -35.84375 25.703125 -35.84375 C 24.617188 -35.84375 23.628906 -35.394531 22.734375 -34.5 C 21.847656 -33.601562 21.050781 -32.421875 20.34375 -30.953125 C 19.632812 -29.484375 19.019531 -27.8125 18.5 -25.9375 C 17.988281 -24.070312 17.554688 -22.175781 17.203125 -20.25 C 16.847656 -18.320312 16.578125 -16.4375 16.390625 -14.59375 C 16.203125 -12.75 16.109375 -11.140625 16.109375 -9.765625 C 16.109375 -9.347656 16.128906 -8.828125 16.171875 -8.203125 C 16.210938 -7.585938 16.347656 -6.976562 16.578125 -6.375 C 16.804688 -5.769531 17.140625 -5.25 17.578125 -4.8125 C 18.015625 -4.382812 18.644531 -4.171875 19.46875 -4.171875 C 20.84375 -4.171875 22.171875 -4.914062 23.453125 -6.40625 C 24.742188 -7.894531 25.71875 -10.382812 26.375 -13.875 L 21.15625 -13.875 Z M 22.09375 -18.046875 "/></g></g></g><g fill="#000000" fill-opacity="0.4"><g transform="translate(148.783758, 298.851922)"><g><path d="M 4.484375 -24.453125 C 6.597656 -25.484375 8.765625 -26.238281 10.984375 -26.71875 C 13.203125 -27.195312 15.679688 -27.4375 18.421875 -27.4375 C 21.078125 -27.4375 23.273438 -27.226562 25.015625 -26.8125 C 26.753906 -26.394531 28.140625 -25.789062 29.171875 -25 C 30.210938 -24.21875 30.941406 -23.285156 31.359375 -22.203125 C 31.773438 -21.128906 31.984375 -19.910156 31.984375 -18.546875 C 31.984375 -17.753906 31.929688 -16.898438 31.828125 -15.984375 C 31.722656 -15.078125 31.609375 -14.3125 31.484375 -13.6875 L 28.5625 0 L 18.546875 0 L 17.421875 -3.984375 L 17.046875 -3.984375 C 15.722656 -2.523438 14.175781 -1.410156 12.40625 -0.640625 C 10.644531 0.117188 8.894531 0.5 7.15625 0.5 C 6.15625 0.5 5.175781 0.351562 4.21875 0.0625 C 3.269531 -0.226562 2.421875 -0.671875 1.671875 -1.265625 C 0.929688 -1.867188 0.332031 -2.640625 -0.125 -3.578125 C -0.582031 -4.515625 -0.8125 -5.644531 -0.8125 -6.96875 C -0.8125 -9.125 -0.222656 -10.832031 0.953125 -12.09375 C 2.140625 -13.363281 3.695312 -14.316406 5.625 -14.953125 C 7.5625 -15.597656 9.738281 -16.003906 12.15625 -16.171875 C 14.582031 -16.335938 17.019531 -16.421875 19.46875 -16.421875 C 19.550781 -16.835938 19.65625 -17.425781 19.78125 -18.1875 C 19.90625 -18.957031 19.96875 -19.632812 19.96875 -20.21875 C 19.96875 -20.96875 19.769531 -21.660156 19.375 -22.296875 C 18.988281 -22.941406 18.171875 -23.265625 16.921875 -23.265625 C 15.472656 -23.265625 14.40625 -22.835938 13.71875 -21.984375 C 13.03125 -21.140625 12.582031 -20.117188 12.375 -18.921875 L 3.296875 -18.921875 Z M 18.796875 -13.5 L 17.671875 -13.5 C 16.460938 -13.5 15.429688 -13.34375 14.578125 -13.03125 C 13.734375 -12.71875 13.050781 -12.3125 12.53125 -11.8125 C 12.019531 -11.320312 11.640625 -10.765625 11.390625 -10.140625 C 11.140625 -9.515625 11.015625 -8.894531 11.015625 -8.28125 C 11.015625 -7.28125 11.269531 -6.53125 11.78125 -6.03125 C 12.300781 -5.53125 12.914062 -5.28125 13.625 -5.28125 C 14.5 -5.28125 15.359375 -5.59375 16.203125 -6.21875 C 17.054688 -6.84375 17.585938 -7.671875 17.796875 -8.703125 Z M 18.796875 -13.5 "/></g></g></g><g fill="#000000" fill-opacity="0.4"><g transform="translate(183.128359, 298.851922)"><g><path d="M 16.671875 -22.765625 C 17.546875 -23.597656 18.519531 -24.367188 19.59375 -25.078125 C 20.550781 -25.648438 21.691406 -26.1875 23.015625 -26.6875 C 24.347656 -27.1875 25.84375 -27.4375 27.5 -27.4375 C 29.488281 -27.4375 30.96875 -26.976562 31.9375 -26.0625 C 32.914062 -25.15625 33.46875 -24.035156 33.59375 -22.703125 L 33.96875 -22.703125 C 34.925781 -23.578125 35.960938 -24.367188 37.078125 -25.078125 C 38.035156 -25.648438 39.15625 -26.1875 40.4375 -26.6875 C 41.726562 -27.1875 43.097656 -27.4375 44.546875 -27.4375 C 46.703125 -27.4375 48.453125 -26.84375 49.796875 -25.65625 C 51.148438 -24.476562 51.828125 -22.957031 51.828125 -21.09375 C 51.828125 -20.132812 51.660156 -18.867188 51.328125 -17.296875 C 50.992188 -15.722656 50.617188 -14 50.203125 -12.125 L 47.59375 0 L 35.34375 0 L 38.703125 -16.234375 C 38.828125 -16.859375 38.953125 -17.460938 39.078125 -18.046875 C 39.203125 -18.628906 39.265625 -19.101562 39.265625 -19.46875 C 39.265625 -20.050781 39.097656 -20.539062 38.765625 -20.9375 C 38.429688 -21.332031 37.953125 -21.53125 37.328125 -21.53125 C 36.546875 -21.53125 35.8125 -21.25 35.125 -20.6875 C 34.4375 -20.125 33.90625 -19.65625 33.53125 -19.28125 L 29.484375 0 L 17.859375 0 L 21.28125 -16.234375 C 21.363281 -16.773438 21.46875 -17.328125 21.59375 -17.890625 C 21.71875 -18.453125 21.78125 -18.957031 21.78125 -19.40625 C 21.78125 -20.03125 21.625 -20.539062 21.3125 -20.9375 C 21 -21.332031 20.53125 -21.53125 19.90625 -21.53125 C 19.164062 -21.53125 18.453125 -21.257812 17.765625 -20.71875 C 17.078125 -20.175781 16.546875 -19.71875 16.171875 -19.34375 L 12.078125 0 L -0.625 0 L 5.046875 -26.75 L 15.1875 -26.75 L 16.296875 -22.765625 Z M 16.671875 -22.765625 "/></g></g></g><g fill="#000000" fill-opacity="0.4"><g transform="translate(236.69845, 298.851922)"><g><path d="M 9.453125 0 L -0.625 0 L 8.21875 -41.8125 L 20.96875 -41.8125 L 16.921875 -22.765625 L 17.359375 -22.765625 C 18.722656 -24.347656 20.265625 -25.476562 21.984375 -26.15625 C 23.710938 -26.84375 25.425781 -27.1875 27.125 -27.1875 C 28.582031 -27.1875 29.796875 -26.96875 30.765625 -26.53125 C 31.742188 -26.101562 32.519531 -25.515625 33.09375 -24.765625 C 33.675781 -24.015625 34.09375 -23.117188 34.34375 -22.078125 C 34.59375 -21.046875 34.71875 -19.953125 34.71875 -18.796875 C 34.71875 -18.210938 34.675781 -17.335938 34.59375 -16.171875 C 34.507812 -15.015625 34.320312 -13.71875 34.03125 -12.28125 C 33.738281 -10.851562 33.320312 -9.378906 32.78125 -7.859375 C 32.25 -6.347656 31.535156 -4.96875 30.640625 -3.71875 C 29.753906 -2.476562 28.632812 -1.460938 27.28125 -0.671875 C 25.9375 0.109375 24.332031 0.5 22.46875 0.5 C 21.34375 0.5 20.25 0.375 19.1875 0.125 C 18.132812 -0.125 17.179688 -0.457031 16.328125 -0.875 C 15.484375 -1.289062 14.738281 -1.773438 14.09375 -2.328125 C 13.445312 -2.890625 12.976562 -3.460938 12.6875 -4.046875 L 12.25 -4.046875 Z M 16.484375 -5.53125 C 17.484375 -5.53125 18.3125 -6.054688 18.96875 -7.109375 C 19.632812 -8.171875 20.175781 -9.414062 20.59375 -10.84375 C 21.007812 -12.28125 21.3125 -13.710938 21.5 -15.140625 C 21.6875 -16.578125 21.78125 -17.648438 21.78125 -18.359375 C 21.78125 -19.179688 21.644531 -19.863281 21.375 -20.40625 C 21.101562 -20.945312 20.613281 -21.21875 19.90625 -21.21875 C 19.082031 -21.21875 18.316406 -20.914062 17.609375 -20.3125 C 16.898438 -19.707031 16.378906 -19.203125 16.046875 -18.796875 L 13.625 -7.65625 C 13.914062 -7.15625 14.300781 -6.675781 14.78125 -6.21875 C 15.257812 -5.757812 15.828125 -5.53125 16.484375 -5.53125 Z M 16.484375 -5.53125 "/></g></g></g><g fill="#000000" fill-opacity="0.4"><g transform="translate(273.096251, 298.851922)"><g><path d="M 12.078125 0 L -0.625 0 L 8.21875 -41.8125 L 20.96875 -41.8125 Z M 12.078125 0 "/></g></g></g><g fill="#000000" fill-opacity="0.4"><g transform="translate(291.326264, 298.851922)"><g><path d="M 13.5625 -12.5 C 13.394531 -11.59375 13.28125 -10.722656 13.21875 -9.890625 C 13.15625 -9.054688 13.125 -8.3125 13.125 -7.65625 C 13.125 -7.28125 13.144531 -6.863281 13.1875 -6.40625 C 13.226562 -5.945312 13.320312 -5.519531 13.46875 -5.125 C 13.613281 -4.738281 13.820312 -4.410156 14.09375 -4.140625 C 14.363281 -3.867188 14.75 -3.734375 15.25 -3.734375 C 15.613281 -3.734375 16.035156 -3.859375 16.515625 -4.109375 C 16.992188 -4.359375 17.472656 -4.707031 17.953125 -5.15625 C 18.429688 -5.613281 18.882812 -6.175781 19.3125 -6.84375 C 19.75 -7.507812 20.09375 -8.253906 20.34375 -9.078125 L 30.546875 -9.078125 L 28.9375 -2.421875 C 28.101562 -1.890625 27.144531 -1.4375 26.0625 -1.0625 C 24.988281 -0.6875 23.847656 -0.382812 22.640625 -0.15625 C 21.441406 0.0703125 20.21875 0.238281 18.96875 0.34375 C 17.726562 0.445312 16.550781 0.5 15.4375 0.5 C 13.351562 0.5 11.421875 0.3125 9.640625 -0.0625 C 7.859375 -0.4375 6.300781 -1.078125 4.96875 -1.984375 C 3.644531 -2.898438 2.597656 -4.113281 1.828125 -5.625 C 1.066406 -7.144531 0.6875 -9.023438 0.6875 -11.265625 C 0.6875 -13.296875 1.003906 -15.285156 1.640625 -17.234375 C 2.285156 -19.179688 3.363281 -20.910156 4.875 -22.421875 C 6.394531 -23.941406 8.429688 -25.15625 10.984375 -26.0625 C 13.535156 -26.976562 16.71875 -27.4375 20.53125 -27.4375 C 24.675781 -27.4375 27.796875 -26.789062 29.890625 -25.5 C 31.984375 -24.21875 33.03125 -22.207031 33.03125 -19.46875 C 33.03125 -18.351562 32.863281 -17.140625 32.53125 -15.828125 C 32.207031 -14.523438 31.710938 -13.414062 31.046875 -12.5 Z M 21.84375 -19.90625 C 21.84375 -21.195312 21.632812 -22.066406 21.21875 -22.515625 C 20.800781 -22.972656 20.300781 -23.203125 19.71875 -23.203125 C 19.0625 -23.203125 18.453125 -22.984375 17.890625 -22.546875 C 17.328125 -22.117188 16.816406 -21.539062 16.359375 -20.8125 C 15.898438 -20.082031 15.484375 -19.25 15.109375 -18.3125 C 14.742188 -17.382812 14.4375 -16.40625 14.1875 -15.375 L 21.28125 -15.375 C 21.363281 -15.863281 21.445312 -16.378906 21.53125 -16.921875 C 21.613281 -17.378906 21.6875 -17.875 21.75 -18.40625 C 21.8125 -18.945312 21.84375 -19.445312 21.84375 -19.90625 Z M 21.84375 -19.90625 "/></g></g></g><g fill="#09b3e4" fill-opacity="1"><g transform="translate(106.089807, 296.102215)"><g><path d="M 22.09375 -18.046875 L 38.203125 -18.046875 L 34.59375 0 L 27.25 0 L 26.0625 -3.984375 L 25.828125 -3.984375 C 24.742188 -2.734375 23.460938 -1.671875 21.984375 -0.796875 C 20.515625 0.0664062 18.597656 0.5 16.234375 0.5 C 14.410156 0.5 12.660156 0.195312 10.984375 -0.40625 C 9.304688 -1.007812 7.8125 -1.960938 6.5 -3.265625 C 5.195312 -4.566406 4.148438 -6.273438 3.359375 -8.390625 C 2.566406 -10.515625 2.171875 -13.066406 2.171875 -16.046875 C 2.171875 -19.285156 2.671875 -22.351562 3.671875 -25.25 C 4.671875 -28.15625 6.164062 -30.71875 8.15625 -32.9375 C 10.144531 -35.164062 12.628906 -36.921875 15.609375 -38.203125 C 18.597656 -39.484375 22.082031 -40.125 26.0625 -40.125 C 29.132812 -40.125 31.8125 -39.769531 34.09375 -39.0625 C 36.375 -38.363281 38.53125 -37.578125 40.5625 -36.703125 L 38.203125 -24.640625 L 27.6875 -24.640625 C 27.726562 -25.097656 27.789062 -25.632812 27.875 -26.25 C 27.957031 -26.875 28.019531 -27.53125 28.0625 -28.21875 C 28.101562 -28.90625 28.144531 -29.578125 28.1875 -30.234375 C 28.226562 -30.898438 28.25 -31.484375 28.25 -31.984375 C 28.25 -32.316406 28.226562 -32.695312 28.1875 -33.125 C 28.144531 -33.5625 28.039062 -33.988281 27.875 -34.40625 C 27.707031 -34.820312 27.457031 -35.164062 27.125 -35.4375 C 26.789062 -35.707031 26.316406 -35.84375 25.703125 -35.84375 C 24.617188 -35.84375 23.628906 -35.394531 22.734375 -34.5 C 21.847656 -33.601562 21.050781 -32.421875 20.34375 -30.953125 C 19.632812 -29.484375 19.019531 -27.8125 18.5 -25.9375 C 17.988281 -24.070312 17.554688 -22.175781 17.203125 -20.25 C 16.847656 -18.320312 16.578125 -16.4375 16.390625 -14.59375 C 16.203125 -12.75 16.109375 -11.140625 16.109375 -9.765625 C 16.109375 -9.347656 16.128906 -8.828125 16.171875 -8.203125 C 16.210938 -7.585938 16.347656 -6.976562 16.578125 -6.375 C 16.804688 -5.769531 17.140625 -5.25 17.578125 -4.8125 C 18.015625 -4.382812 18.644531 -4.171875 19.46875 -4.171875 C 20.84375 -4.171875 22.171875 -4.914062 23.453125 -6.40625 C 24.742188 -7.894531 25.71875 -10.382812 26.375 -13.875 L 21.15625 -13.875 Z M 22.09375 -18.046875 "/></g></g></g><g fill="#09b3e4" fill-opacity="1"><g transform="translate(146.034058, 296.102215)"><g><path d="M 4.484375 -24.453125 C 6.597656 -25.484375 8.765625 -26.238281 10.984375 -26.71875 C 13.203125 -27.195312 15.679688 -27.4375 18.421875 -27.4375 C 21.078125 -27.4375 23.273438 -27.226562 25.015625 -26.8125 C 26.753906 -26.394531 28.140625 -25.789062 29.171875 -25 C 30.210938 -24.21875 30.941406 -23.285156 31.359375 -22.203125 C 31.773438 -21.128906 31.984375 -19.910156 31.984375 -18.546875 C 31.984375 -17.753906 31.929688 -16.898438 31.828125 -15.984375 C 31.722656 -15.078125 31.609375 -14.3125 31.484375 -13.6875 L 28.5625 0 L 18.546875 0 L 17.421875 -3.984375 L 17.046875 -3.984375 C 15.722656 -2.523438 14.175781 -1.410156 12.40625 -0.640625 C 10.644531 0.117188 8.894531 0.5 7.15625 0.5 C 6.15625 0.5 5.175781 0.351562 4.21875 0.0625 C 3.269531 -0.226562 2.421875 -0.671875 1.671875 -1.265625 C 0.929688 -1.867188 0.332031 -2.640625 -0.125 -3.578125 C -0.582031 -4.515625 -0.8125 -5.644531 -0.8125 -6.96875 C -0.8125 -9.125 -0.222656 -10.832031 0.953125 -12.09375 C 2.140625 -13.363281 3.695312 -14.316406 5.625 -14.953125 C 7.5625 -15.597656 9.738281 -16.003906 12.15625 -16.171875 C 14.582031 -16.335938 17.019531 -16.421875 19.46875 -16.421875 C 19.550781 -16.835938 19.65625 -17.425781 19.78125 -18.1875 C 19.90625 -18.957031 19.96875 -19.632812 19.96875 -20.21875 C 19.96875 -20.96875 19.769531 -21.660156 19.375 -22.296875 C 18.988281 -22.941406 18.171875 -23.265625 16.921875 -23.265625 C 15.472656 -23.265625 14.40625 -22.835938 13.71875 -21.984375 C 13.03125 -21.140625 12.582031 -20.117188 12.375 -18.921875 L 3.296875 -18.921875 Z M 18.796875 -13.5 L 17.671875 -13.5 C 16.460938 -13.5 15.429688 -13.34375 14.578125 -13.03125 C 13.734375 -12.71875 13.050781 -12.3125 12.53125 -11.8125 C 12.019531 -11.320312 11.640625 -10.765625 11.390625 -10.140625 C 11.140625 -9.515625 11.015625 -8.894531 11.015625 -8.28125 C 11.015625 -7.28125 11.269531 -6.53125 11.78125 -6.03125 C 12.300781 -5.53125 12.914062 -5.28125 13.625 -5.28125 C 14.5 -5.28125 15.359375 -5.59375 16.203125 -6.21875 C 17.054688 -6.84375 17.585938 -7.671875 17.796875 -8.703125 Z M 18.796875 -13.5 "/></g></g></g><g fill="#09b3e4" fill-opacity="1"><g transform="translate(180.378659, 296.102215)"><g><path d="M 16.671875 -22.765625 C 17.546875 -23.597656 18.519531 -24.367188 19.59375 -25.078125 C 20.550781 -25.648438 21.691406 -26.1875 23.015625 -26.6875 C 24.347656 -27.1875 25.84375 -27.4375 27.5 -27.4375 C 29.488281 -27.4375 30.96875 -26.976562 31.9375 -26.0625 C 32.914062 -25.15625 33.46875 -24.035156 33.59375 -22.703125 L 33.96875 -22.703125 C 34.925781 -23.578125 35.960938 -24.367188 37.078125 -25.078125 C 38.035156 -25.648438 39.15625 -26.1875 40.4375 -26.6875 C 41.726562 -27.1875 43.097656 -27.4375 44.546875 -27.4375 C 46.703125 -27.4375 48.453125 -26.84375 49.796875 -25.65625 C 51.148438 -24.476562 51.828125 -22.957031 51.828125 -21.09375 C 51.828125 -20.132812 51.660156 -18.867188 51.328125 -17.296875 C 50.992188 -15.722656 50.617188 -14 50.203125 -12.125 L 47.59375 0 L 35.34375 0 L 38.703125 -16.234375 C 38.828125 -16.859375 38.953125 -17.460938 39.078125 -18.046875 C 39.203125 -18.628906 39.265625 -19.101562 39.265625 -19.46875 C 39.265625 -20.050781 39.097656 -20.539062 38.765625 -20.9375 C 38.429688 -21.332031 37.953125 -21.53125 37.328125 -21.53125 C 36.546875 -21.53125 35.8125 -21.25 35.125 -20.6875 C 34.4375 -20.125 33.90625 -19.65625 33.53125 -19.28125 L 29.484375 0 L 17.859375 0 L 21.28125 -16.234375 C 21.363281 -16.773438 21.46875 -17.328125 21.59375 -17.890625 C 21.71875 -18.453125 21.78125 -18.957031 21.78125 -19.40625 C 21.78125 -20.03125 21.625 -20.539062 21.3125 -20.9375 C 21 -21.332031 20.53125 -21.53125 19.90625 -21.53125 C 19.164062 -21.53125 18.453125 -21.257812 17.765625 -20.71875 C 17.078125 -20.175781 16.546875 -19.71875 16.171875 -19.34375 L 12.078125 0 L -0.625 0 L 5.046875 -26.75 L 15.1875 -26.75 L 16.296875 -22.765625 Z M 16.671875 -22.765625 "/></g></g></g><g fill="#09b3e4" fill-opacity="1"><g transform="translate(233.94875, 296.102215)"><g><path d="M 9.453125 0 L -0.625 0 L 8.21875 -41.8125 L 20.96875 -41.8125 L 16.921875 -22.765625 L 17.359375 -22.765625 C 18.722656 -24.347656 20.265625 -25.476562 21.984375 -26.15625 C 23.710938 -26.84375 25.425781 -27.1875 27.125 -27.1875 C 28.582031 -27.1875 29.796875 -26.96875 30.765625 -26.53125 C 31.742188 -26.101562 32.519531 -25.515625 33.09375 -24.765625 C 33.675781 -24.015625 34.09375 -23.117188 34.34375 -22.078125 C 34.59375 -21.046875 34.71875 -19.953125 34.71875 -18.796875 C 34.71875 -18.210938 34.675781 -17.335938 34.59375 -16.171875 C 34.507812 -15.015625 34.320312 -13.71875 34.03125 -12.28125 C 33.738281 -10.851562 33.320312 -9.378906 32.78125 -7.859375 C 32.25 -6.347656 31.535156 -4.96875 30.640625 -3.71875 C 29.753906 -2.476562 28.632812 -1.460938 27.28125 -0.671875 C 25.9375 0.109375 24.332031 0.5 22.46875 0.5 C 21.34375 0.5 20.25 0.375 19.1875 0.125 C 18.132812 -0.125 17.179688 -0.457031 16.328125 -0.875 C 15.484375 -1.289062 14.738281 -1.773438 14.09375 -2.328125 C 13.445312 -2.890625 12.976562 -3.460938 12.6875 -4.046875 L 12.25 -4.046875 Z M 16.484375 -5.53125 C 17.484375 -5.53125 18.3125 -6.054688 18.96875 -7.109375 C 19.632812 -8.171875 20.175781 -9.414062 20.59375 -10.84375 C 21.007812 -12.28125 21.3125 -13.710938 21.5 -15.140625 C 21.6875 -16.578125 21.78125 -17.648438 21.78125 -18.359375 C 21.78125 -19.179688 21.644531 -19.863281 21.375 -20.40625 C 21.101562 -20.945312 20.613281 -21.21875 19.90625 -21.21875 C 19.082031 -21.21875 18.316406 -20.914062 17.609375 -20.3125 C 16.898438 -19.707031 16.378906 -19.203125 16.046875 -18.796875 L 13.625 -7.65625 C 13.914062 -7.15625 14.300781 -6.675781 14.78125 -6.21875 C 15.257812 -5.757812 15.828125 -5.53125 16.484375 -5.53125 Z M 16.484375 -5.53125 "/></g></g></g><g fill="#09b3e4" fill-opacity="1"><g transform="translate(270.34655, 296.102215)"><g><path d="M 12.078125 0 L -0.625 0 L 8.21875 -41.8125 L 20.96875 -41.8125 Z M 12.078125 0 "/></g></g></g><g fill="#09b3e4" fill-opacity="1"><g transform="translate(288.576564, 296.102215)"><g><path d="M 13.5625 -12.5 C 13.394531 -11.59375 13.28125 -10.722656 13.21875 -9.890625 C 13.15625 -9.054688 13.125 -8.3125 13.125 -7.65625 C 13.125 -7.28125 13.144531 -6.863281 13.1875 -6.40625 C 13.226562 -5.945312 13.320312 -5.519531 13.46875 -5.125 C 13.613281 -4.738281 13.820312 -4.410156 14.09375 -4.140625 C 14.363281 -3.867188 14.75 -3.734375 15.25 -3.734375 C 15.613281 -3.734375 16.035156 -3.859375 16.515625 -4.109375 C 16.992188 -4.359375 17.472656 -4.707031 17.953125 -5.15625 C 18.429688 -5.613281 18.882812 -6.175781 19.3125 -6.84375 C 19.75 -7.507812 20.09375 -8.253906 20.34375 -9.078125 L 30.546875 -9.078125 L 28.9375 -2.421875 C 28.101562 -1.890625 27.144531 -1.4375 26.0625 -1.0625 C 24.988281 -0.6875 23.847656 -0.382812 22.640625 -0.15625 C 21.441406 0.0703125 20.21875 0.238281 18.96875 0.34375 C 17.726562 0.445312 16.550781 0.5 15.4375 0.5 C 13.351562 0.5 11.421875 0.3125 9.640625 -0.0625 C 7.859375 -0.4375 6.300781 -1.078125 4.96875 -1.984375 C 3.644531 -2.898438 2.597656 -4.113281 1.828125 -5.625 C 1.066406 -7.144531 0.6875 -9.023438 0.6875 -11.265625 C 0.6875 -13.296875 1.003906 -15.285156 1.640625 -17.234375 C 2.285156 -19.179688 3.363281 -20.910156 4.875 -22.421875 C 6.394531 -23.941406 8.429688 -25.15625 10.984375 -26.0625 C 13.535156 -26.976562 16.71875 -27.4375 20.53125 -27.4375 C 24.675781 -27.4375 27.796875 -26.789062 29.890625 -25.5 C 31.984375 -24.21875 33.03125 -22.207031 33.03125 -19.46875 C 33.03125 -18.351562 32.863281 -17.140625 32.53125 -15.828125 C 32.207031 -14.523438 31.710938 -13.414062 31.046875 -12.5 Z M 21.84375 -19.90625 C 21.84375 -21.195312 21.632812 -22.066406 21.21875 -22.515625 C 20.800781 -22.972656 20.300781 -23.203125 19.71875 -23.203125 C 19.0625 -23.203125 18.453125 -22.984375 17.890625 -22.546875 C 17.328125 -22.117188 16.816406 -21.539062 16.359375 -20.8125 C 15.898438 -20.082031 15.484375 -19.25 15.109375 -18.3125 C 14.742188 -17.382812 14.4375 -16.40625 14.1875 -15.375 L 21.28125 -15.375 C 21.363281 -15.863281 21.445312 -16.378906 21.53125 -16.921875 C 21.613281 -17.378906 21.6875 -17.875 21.75 -18.40625 C 21.8125 -18.945312 21.84375 -19.445312 21.84375 -19.90625 Z M 21.84375 -19.90625 "/></g></g></g><g fill="#000000" fill-opacity="0.4"><g transform="translate(336.999222, 295.26365)"><g><path d="M 28.09375 0 L 16.234375 0 L 15.515625 -8.0625 L 6.140625 -8.0625 L 2.53125 0 L -2.390625 0 L 12.578125 -32.203125 L 24.59375 -32.203125 Z M 7.8125 -11.765625 L 15.171875 -11.765625 L 14 -25.5625 Z M 7.8125 -11.765625 "/></g></g></g><g fill="#000000" fill-opacity="0.4"><g transform="translate(367.524628, 295.26365)"><g><path d="M 1.71875 -21.8125 L 12.484375 -21.8125 L 14.25 -6.890625 L 20.390625 -21.8125 L 30.078125 -21.8125 L 31.796875 -6.890625 L 37.9375 -21.8125 L 43.3125 -21.8125 L 33.21875 0 L 22.625 0 L 20.75 -11.0625 L 15.625 0 L 5.015625 0 Z M 1.71875 -21.8125 "/></g></g></g><g fill="#000000" fill-opacity="0.4"><g transform="translate(409.661853, 295.26365)"><g><path d="M 3.65625 -19.9375 C 5.375 -20.78125 7.140625 -21.394531 8.953125 -21.78125 C 10.765625 -22.164062 12.785156 -22.359375 15.015625 -22.359375 C 17.179688 -22.359375 18.972656 -22.191406 20.390625 -21.859375 C 21.804688 -21.523438 22.9375 -21.035156 23.78125 -20.390625 C 24.632812 -19.742188 25.226562 -18.976562 25.5625 -18.09375 C 25.894531 -17.21875 26.0625 -16.222656 26.0625 -15.109375 C 26.0625 -14.472656 26.019531 -13.78125 25.9375 -13.03125 C 25.851562 -12.289062 25.757812 -11.664062 25.65625 -11.15625 L 23.28125 0 L 15.109375 0 L 14.203125 -3.25 L 13.890625 -3.25 C 12.816406 -2.0625 11.5625 -1.15625 10.125 -0.53125 C 8.6875 0.09375 7.253906 0.40625 5.828125 0.40625 C 5.015625 0.40625 4.21875 0.285156 3.4375 0.046875 C 2.664062 -0.179688 1.972656 -0.539062 1.359375 -1.03125 C 0.753906 -1.53125 0.269531 -2.160156 -0.09375 -2.921875 C -0.46875 -3.679688 -0.65625 -4.601562 -0.65625 -5.6875 C -0.65625 -7.4375 -0.175781 -8.828125 0.78125 -9.859375 C 1.75 -10.890625 3.019531 -11.664062 4.59375 -12.1875 C 6.164062 -12.71875 7.9375 -13.050781 9.90625 -13.1875 C 11.882812 -13.320312 13.875 -13.390625 15.875 -13.390625 C 15.9375 -13.722656 16.019531 -14.203125 16.125 -14.828125 C 16.226562 -15.460938 16.28125 -16.015625 16.28125 -16.484375 C 16.28125 -17.085938 16.117188 -17.648438 15.796875 -18.171875 C 15.472656 -18.703125 14.804688 -18.96875 13.796875 -18.96875 C 12.609375 -18.96875 11.734375 -18.617188 11.171875 -17.921875 C 10.617188 -17.234375 10.257812 -16.398438 10.09375 -15.421875 L 2.6875 -15.421875 Z M 15.3125 -11 L 14.40625 -11 C 13.425781 -11 12.585938 -10.875 11.890625 -10.625 C 11.203125 -10.375 10.644531 -10.046875 10.21875 -9.640625 C 9.789062 -9.234375 9.476562 -8.773438 9.28125 -8.265625 C 9.082031 -7.753906 8.984375 -7.25 8.984375 -6.75 C 8.984375 -5.9375 9.191406 -5.328125 9.609375 -4.921875 C 10.035156 -4.515625 10.535156 -4.3125 11.109375 -4.3125 C 11.816406 -4.3125 12.515625 -4.5625 13.203125 -5.0625 C 13.898438 -5.570312 14.332031 -6.25 14.5 -7.09375 Z M 15.3125 -11 "/></g></g></g><g fill="#000000" fill-opacity="0.4"><g transform="translate(437.651925, 295.26365)"><g><path d="M 4.109375 -21.8125 L 12.375 -21.8125 L 13.140625 -18 L 13.484375 -18 C 14.265625 -19.21875 15.265625 -20.25 16.484375 -21.09375 C 17.703125 -21.9375 19.304688 -22.359375 21.296875 -22.359375 C 21.429688 -22.359375 21.640625 -22.347656 21.921875 -22.328125 C 22.210938 -22.316406 22.535156 -22.269531 22.890625 -22.1875 C 23.253906 -22.101562 23.628906 -21.984375 24.015625 -21.828125 C 24.398438 -21.679688 24.78125 -21.472656 25.15625 -21.203125 L 22.921875 -10.75 L 17.390625 -10.75 C 17.328125 -12.84375 17.140625 -14.300781 16.828125 -15.125 C 16.523438 -15.957031 16.039062 -16.375 15.375 -16.375 C 15.03125 -16.375 14.660156 -16.296875 14.265625 -16.140625 C 13.878906 -15.992188 13.484375 -15.671875 13.078125 -15.171875 L 9.84375 0 L -0.5 0 Z M 4.109375 -21.8125 "/></g></g></g><g fill="#000000" fill-opacity="0.4"><g transform="translate(462.14324, 295.26365)"><g><path d="M 11.0625 -10.1875 C 10.925781 -9.445312 10.832031 -8.738281 10.78125 -8.0625 C 10.726562 -7.382812 10.703125 -6.773438 10.703125 -6.234375 C 10.703125 -5.929688 10.71875 -5.59375 10.75 -5.21875 C 10.78125 -4.851562 10.851562 -4.507812 10.96875 -4.1875 C 11.09375 -3.863281 11.265625 -3.59375 11.484375 -3.375 C 11.703125 -3.15625 12.015625 -3.046875 12.421875 -3.046875 C 12.722656 -3.046875 13.066406 -3.144531 13.453125 -3.34375 C 13.847656 -3.550781 14.238281 -3.835938 14.625 -4.203125 C 15.019531 -4.578125 15.394531 -5.035156 15.75 -5.578125 C 16.101562 -6.117188 16.378906 -6.726562 16.578125 -7.40625 L 24.90625 -7.40625 L 23.578125 -1.984375 C 22.898438 -1.535156 22.125 -1.160156 21.25 -0.859375 C 20.375 -0.554688 19.441406 -0.3125 18.453125 -0.125 C 17.472656 0.0625 16.476562 0.195312 15.46875 0.28125 C 14.457031 0.363281 13.492188 0.40625 12.578125 0.40625 C 10.890625 0.40625 9.316406 0.253906 7.859375 -0.046875 C 6.410156 -0.347656 5.144531 -0.867188 4.0625 -1.609375 C 2.976562 -2.359375 2.125 -3.347656 1.5 -4.578125 C 0.875 -5.816406 0.5625 -7.351562 0.5625 -9.1875 C 0.5625 -10.84375 0.820312 -12.460938 1.34375 -14.046875 C 1.863281 -15.640625 2.738281 -17.050781 3.96875 -18.28125 C 5.207031 -19.519531 6.867188 -20.507812 8.953125 -21.25 C 11.035156 -21.988281 13.628906 -22.359375 16.734375 -22.359375 C 20.117188 -22.359375 22.664062 -21.832031 24.375 -20.78125 C 26.082031 -19.738281 26.9375 -18.101562 26.9375 -15.875 C 26.9375 -14.957031 26.800781 -13.96875 26.53125 -12.90625 C 26.257812 -11.84375 25.851562 -10.9375 25.3125 -10.1875 Z M 17.796875 -16.234375 C 17.796875 -17.273438 17.625 -17.984375 17.28125 -18.359375 C 16.945312 -18.734375 16.546875 -18.921875 16.078125 -18.921875 C 15.535156 -18.921875 15.035156 -18.742188 14.578125 -18.390625 C 14.117188 -18.035156 13.703125 -17.5625 13.328125 -16.96875 C 12.960938 -16.375 12.628906 -15.695312 12.328125 -14.9375 C 12.023438 -14.175781 11.769531 -13.375 11.5625 -12.53125 L 17.34375 -12.53125 C 17.414062 -12.9375 17.484375 -13.359375 17.546875 -13.796875 C 17.617188 -14.171875 17.675781 -14.578125 17.71875 -15.015625 C 17.769531 -15.453125 17.796875 -15.859375 17.796875 -16.234375 Z M 17.796875 -16.234375 "/></g></g></g><g fill="#f57d11" fill-opacity="1"><g transform="translate(334.757702, 293.02213)"><g><path d="M 28.09375 0 L 16.234375 0 L 15.515625 -8.0625 L 6.140625 -8.0625 L 2.53125 0 L -2.390625 0 L 12.578125 -32.203125 L 24.59375 -32.203125 Z M 7.8125 -11.765625 L 15.171875 -11.765625 L 14 -25.5625 Z M 7.8125 -11.765625 "/></g></g></g><g fill="#f57d11" fill-opacity="1"><g transform="translate(365.283108, 293.02213)"><g><path d="M 1.71875 -21.8125 L 12.484375 -21.8125 L 14.25 -6.890625 L 20.390625 -21.8125 L 30.078125 -21.8125 L 31.796875 -6.890625 L 37.9375 -21.8125 L 43.3125 -21.8125 L 33.21875 0 L 22.625 0 L 20.75 -11.0625 L 15.625 0 L 5.015625 0 Z M 1.71875 -21.8125 "/></g></g></g><g fill="#f57d11" fill-opacity="1"><g transform="translate(407.420333, 293.02213)"><g><path d="M 3.65625 -19.9375 C 5.375 -20.78125 7.140625 -21.394531 8.953125 -21.78125 C 10.765625 -22.164062 12.785156 -22.359375 15.015625 -22.359375 C 17.179688 -22.359375 18.972656 -22.191406 20.390625 -21.859375 C 21.804688 -21.523438 22.9375 -21.035156 23.78125 -20.390625 C 24.632812 -19.742188 25.226562 -18.976562 25.5625 -18.09375 C 25.894531 -17.21875 26.0625 -16.222656 26.0625 -15.109375 C 26.0625 -14.472656 26.019531 -13.78125 25.9375 -13.03125 C 25.851562 -12.289062 25.757812 -11.664062 25.65625 -11.15625 L 23.28125 0 L 15.109375 0 L 14.203125 -3.25 L 13.890625 -3.25 C 12.816406 -2.0625 11.5625 -1.15625 10.125 -0.53125 C 8.6875 0.09375 7.253906 0.40625 5.828125 0.40625 C 5.015625 0.40625 4.21875 0.285156 3.4375 0.046875 C 2.664062 -0.179688 1.972656 -0.539062 1.359375 -1.03125 C 0.753906 -1.53125 0.269531 -2.160156 -0.09375 -2.921875 C -0.46875 -3.679688 -0.65625 -4.601562 -0.65625 -5.6875 C -0.65625 -7.4375 -0.175781 -8.828125 0.78125 -9.859375 C 1.75 -10.890625 3.019531 -11.664062 4.59375 -12.1875 C 6.164062 -12.71875 7.9375 -13.050781 9.90625 -13.1875 C 11.882812 -13.320312 13.875 -13.390625 15.875 -13.390625 C 15.9375 -13.722656 16.019531 -14.203125 16.125 -14.828125 C 16.226562 -15.460938 16.28125 -16.015625 16.28125 -16.484375 C 16.28125 -17.085938 16.117188 -17.648438 15.796875 -18.171875 C 15.472656 -18.703125 14.804688 -18.96875 13.796875 -18.96875 C 12.609375 -18.96875 11.734375 -18.617188 11.171875 -17.921875 C 10.617188 -17.234375 10.257812 -16.398438 10.09375 -15.421875 L 2.6875 -15.421875 Z M 15.3125 -11 L 14.40625 -11 C 13.425781 -11 12.585938 -10.875 11.890625 -10.625 C 11.203125 -10.375 10.644531 -10.046875 10.21875 -9.640625 C 9.789062 -9.234375 9.476562 -8.773438 9.28125 -8.265625 C 9.082031 -7.753906 8.984375 -7.25 8.984375 -6.75 C 8.984375 -5.9375 9.191406 -5.328125 9.609375 -4.921875 C 10.035156 -4.515625 10.535156 -4.3125 11.109375 -4.3125 C 11.816406 -4.3125 12.515625 -4.5625 13.203125 -5.0625 C 13.898438 -5.570312 14.332031 -6.25 14.5 -7.09375 Z M 15.3125 -11 "/></g></g></g><g fill="#f57d11" fill-opacity="1"><g transform="translate(435.410405, 293.02213)"><g><path d="M 4.109375 -21.8125 L 12.375 -21.8125 L 13.140625 -18 L 13.484375 -18 C 14.265625 -19.21875 15.265625 -20.25 16.484375 -21.09375 C 17.703125 -21.9375 19.304688 -22.359375 21.296875 -22.359375 C 21.429688 -22.359375 21.640625 -22.347656 21.921875 -22.328125 C 22.210938 -22.316406 22.535156 -22.269531 22.890625 -22.1875 C 23.253906 -22.101562 23.628906 -21.984375 24.015625 -21.828125 C 24.398438 -21.679688 24.78125 -21.472656 25.15625 -21.203125 L 22.921875 -10.75 L 17.390625 -10.75 C 17.328125 -12.84375 17.140625 -14.300781 16.828125 -15.125 C 16.523438 -15.957031 16.039062 -16.375 15.375 -16.375 C 15.03125 -16.375 14.660156 -16.296875 14.265625 -16.140625 C 13.878906 -15.992188 13.484375 -15.671875 13.078125 -15.171875 L 9.84375 0 L -0.5 0 Z M 4.109375 -21.8125 "/></g></g></g><g fill="#f57d11" fill-opacity="1"><g transform="translate(459.90172, 293.02213)"><g><path d="M 11.0625 -10.1875 C 10.925781 -9.445312 10.832031 -8.738281 10.78125 -8.0625 C 10.726562 -7.382812 10.703125 -6.773438 10.703125 -6.234375 C 10.703125 -5.929688 10.71875 -5.59375 10.75 -5.21875 C 10.78125 -4.851562 10.851562 -4.507812 10.96875 -4.1875 C 11.09375 -3.863281 11.265625 -3.59375 11.484375 -3.375 C 11.703125 -3.15625 12.015625 -3.046875 12.421875 -3.046875 C 12.722656 -3.046875 13.066406 -3.144531 13.453125 -3.34375 C 13.847656 -3.550781 14.238281 -3.835938 14.625 -4.203125 C 15.019531 -4.578125 15.394531 -5.035156 15.75 -5.578125 C 16.101562 -6.117188 16.378906 -6.726562 16.578125 -7.40625 L 24.90625 -7.40625 L 23.578125 -1.984375 C 22.898438 -1.535156 22.125 -1.160156 21.25 -0.859375 C 20.375 -0.554688 19.441406 -0.3125 18.453125 -0.125 C 17.472656 0.0625 16.476562 0.195312 15.46875 0.28125 C 14.457031 0.363281 13.492188 0.40625 12.578125 0.40625 C 10.890625 0.40625 9.316406 0.253906 7.859375 -0.046875 C 6.410156 -0.347656 5.144531 -0.867188 4.0625 -1.609375 C 2.976562 -2.359375 2.125 -3.347656 1.5 -4.578125 C 0.875 -5.816406 0.5625 -7.351562 0.5625 -9.1875 C 0.5625 -10.84375 0.820312 -12.460938 1.34375 -14.046875 C 1.863281 -15.640625 2.738281 -17.050781 3.96875 -18.28125 C 5.207031 -19.519531 6.867188 -20.507812 8.953125 -21.25 C 11.035156 -21.988281 13.628906 -22.359375 16.734375 -22.359375 C 20.117188 -22.359375 22.664062 -21.832031 24.375 -20.78125 C 26.082031 -19.738281 26.9375 -18.101562 26.9375 -15.875 C 26.9375 -14.957031 26.800781 -13.96875 26.53125 -12.90625 C 26.257812 -11.84375 25.851562 -10.9375 25.3125 -10.1875 Z M 17.796875 -16.234375 C 17.796875 -17.273438 17.625 -17.984375 17.28125 -18.359375 C 16.945312 -18.734375 16.546875 -18.921875 16.078125 -18.921875 C 15.535156 -18.921875 15.035156 -18.742188 14.578125 -18.390625 C 14.117188 -18.035156 13.703125 -17.5625 13.328125 -16.96875 C 12.960938 -16.375 12.628906 -15.695312 12.328125 -14.9375 C 12.023438 -14.175781 11.769531 -13.375 11.5625 -12.53125 L 17.34375 -12.53125 C 17.414062 -12.9375 17.484375 -13.359375 17.546875 -13.796875 C 17.617188 -14.171875 17.675781 -14.578125 17.71875 -15.015625 C 17.769531 -15.453125 17.796875 -15.859375 17.796875 -16.234375 Z M 17.796875 -16.234375 "/></g></g></g><g fill="#000000" fill-opacity="0.4"><g transform="translate(489.88903, 295.26365)"><g><path d="M 10.296875 -4.46875 C 10.296875 -3.6875 10.132812 -2.988281 9.8125 -2.375 C 9.488281 -1.769531 9.066406 -1.265625 8.546875 -0.859375 C 8.023438 -0.453125 7.425781 -0.140625 6.75 0.078125 C 6.070312 0.296875 5.359375 0.40625 4.609375 0.40625 C 3.328125 0.40625 2.238281 0.0625 1.34375 -0.625 C 0.445312 -1.320312 0 -2.414062 0 -3.90625 C 0 -4.6875 0.148438 -5.378906 0.453125 -5.984375 C 0.753906 -6.585938 1.160156 -7.09375 1.671875 -7.5 C 2.179688 -7.90625 2.765625 -8.21875 3.421875 -8.4375 C 4.078125 -8.664062 4.765625 -8.78125 5.484375 -8.78125 C 6.867188 -8.78125 8.015625 -8.429688 8.921875 -7.734375 C 9.835938 -7.035156 10.296875 -5.945312 10.296875 -4.46875 Z M 10.296875 -4.46875 "/></g></g></g><g fill="#000000" fill-opacity="0.4"><g transform="translate(503.782651, 295.26365)"><g><path d="M 15.96875 -22.359375 C 20 -22.359375 22.925781 -21.648438 24.75 -20.234375 C 26.675781 -18.742188 27.640625 -16.273438 27.640625 -12.828125 C 27.640625 -10.703125 27.285156 -8.785156 26.578125 -7.078125 C 25.867188 -5.367188 24.867188 -3.957031 23.578125 -2.84375 C 21.015625 -0.675781 17.296875 0.40625 12.421875 0.40625 C 8.265625 0.40625 5.289062 -0.390625 3.5 -1.984375 C 1.570312 -3.640625 0.609375 -6.125 0.609375 -9.4375 C 0.609375 -11.632812 1.054688 -13.628906 1.953125 -15.421875 C 2.847656 -17.210938 4.140625 -18.695312 5.828125 -19.875 C 8.296875 -21.53125 11.675781 -22.359375 15.96875 -22.359375 Z M 12.53125 -3.046875 C 13.375 -3.046875 14.109375 -3.519531 14.734375 -4.46875 C 15.359375 -5.414062 15.851562 -6.570312 16.21875 -7.9375 C 16.59375 -9.300781 16.875 -10.71875 17.0625 -12.1875 C 17.25 -13.664062 17.34375 -14.945312 17.34375 -16.03125 C 17.34375 -16.976562 17.25 -17.695312 17.0625 -18.1875 C 16.875 -18.675781 16.476562 -18.921875 15.875 -18.921875 C 14.957031 -18.921875 14.171875 -18.425781 13.515625 -17.4375 C 12.859375 -16.457031 12.328125 -15.289062 11.921875 -13.9375 C 11.515625 -12.59375 11.21875 -11.207031 11.03125 -9.78125 C 10.84375 -8.363281 10.75 -7.21875 10.75 -6.34375 C 10.75 -4.144531 11.34375 -3.046875 12.53125 -3.046875 Z M 12.53125 -3.046875 "/></g></g></g><g fill="#000000" fill-opacity="0.4"><g transform="translate(532.938975, 295.26365)"><g><path d="M 4.109375 -21.8125 L 12.375 -21.8125 L 13.140625 -18 L 13.484375 -18 C 14.265625 -19.21875 15.265625 -20.25 16.484375 -21.09375 C 17.703125 -21.9375 19.304688 -22.359375 21.296875 -22.359375 C 21.429688 -22.359375 21.640625 -22.347656 21.921875 -22.328125 C 22.210938 -22.316406 22.535156 -22.269531 22.890625 -22.1875 C 23.253906 -22.101562 23.628906 -21.984375 24.015625 -21.828125 C 24.398438 -21.679688 24.78125 -21.472656 25.15625 -21.203125 L 22.921875 -10.75 L 17.390625 -10.75 C 17.328125 -12.84375 17.140625 -14.300781 16.828125 -15.125 C 16.523438 -15.957031 16.039062 -16.375 15.375 -16.375 C 15.03125 -16.375 14.660156 -16.296875 14.265625 -16.140625 C 13.878906 -15.992188 13.484375 -15.671875 13.078125 -15.171875 L 9.84375 0 L -0.5 0 Z M 4.109375 -21.8125 "/></g></g></g><g fill="#000000" fill-opacity="0.4"><g transform="translate(557.43029, 295.26365)"><g><path d="M 20.6875 -21.8125 L 28.90625 -21.8125 L 24.75 -2.078125 C 24.445312 -0.554688 23.941406 0.84375 23.234375 2.125 C 22.523438 3.414062 21.535156 4.53125 20.265625 5.46875 C 18.992188 6.414062 17.398438 7.160156 15.484375 7.703125 C 13.578125 8.242188 11.253906 8.515625 8.515625 8.515625 C 8.015625 8.515625 7.40625 8.503906 6.6875 8.484375 C 5.976562 8.472656 5.25 8.457031 4.5 8.4375 C 3.757812 8.425781 3.050781 8.398438 2.375 8.359375 C 1.707031 8.328125 1.171875 8.296875 0.765625 8.265625 L 1.71875 4.609375 C 2.800781 4.785156 3.910156 4.878906 5.046875 4.890625 C 6.179688 4.910156 7.15625 4.921875 7.96875 4.921875 C 8.976562 4.921875 9.828125 4.828125 10.515625 4.640625 C 11.210938 4.453125 11.789062 4.15625 12.25 3.75 C 12.707031 3.34375 13.078125 2.800781 13.359375 2.125 C 13.648438 1.445312 13.878906 0.617188 14.046875 -0.359375 L 14.65625 -3.65625 L 14.296875 -3.65625 C 14.097656 -3.34375 13.800781 -2.972656 13.40625 -2.546875 C 13.019531 -2.128906 12.519531 -1.726562 11.90625 -1.34375 C 11.300781 -0.957031 10.582031 -0.632812 9.75 -0.375 C 8.925781 -0.125 7.992188 0 6.953125 0 C 5.765625 0 4.753906 -0.175781 3.921875 -0.53125 C 3.097656 -0.882812 2.429688 -1.375 1.921875 -2 C 1.421875 -2.625 1.050781 -3.367188 0.8125 -4.234375 C 0.570312 -5.097656 0.453125 -6.035156 0.453125 -7.046875 C 0.453125 -7.484375 0.484375 -8.160156 0.546875 -9.078125 C 0.617188 -9.992188 0.78125 -11.023438 1.03125 -12.171875 C 1.289062 -13.316406 1.664062 -14.488281 2.15625 -15.6875 C 2.644531 -16.894531 3.300781 -17.988281 4.125 -18.96875 C 4.957031 -19.945312 5.988281 -20.753906 7.21875 -21.390625 C 8.457031 -22.035156 9.957031 -22.359375 11.71875 -22.359375 C 12.257812 -22.359375 12.847656 -22.304688 13.484375 -22.203125 C 14.128906 -22.109375 14.753906 -21.925781 15.359375 -21.65625 C 15.972656 -21.382812 16.515625 -20.992188 16.984375 -20.484375 C 17.460938 -19.984375 17.835938 -19.328125 18.109375 -18.515625 L 18.40625 -18.515625 Z M 15.015625 -17.390625 C 14.203125 -17.390625 13.523438 -16.957031 12.984375 -16.09375 C 12.441406 -15.238281 12 -14.234375 11.65625 -13.078125 C 11.320312 -11.929688 11.078125 -10.789062 10.921875 -9.65625 C 10.773438 -8.53125 10.703125 -7.695312 10.703125 -7.15625 C 10.703125 -6.476562 10.8125 -5.910156 11.03125 -5.453125 C 11.25 -4.992188 11.644531 -4.765625 12.21875 -4.765625 C 12.5625 -4.765625 12.890625 -4.847656 13.203125 -5.015625 C 13.523438 -5.191406 13.832031 -5.390625 14.125 -5.609375 C 14.414062 -5.828125 14.671875 -6.050781 14.890625 -6.28125 C 15.109375 -6.519531 15.269531 -6.707031 15.375 -6.84375 L 17.25 -15.71875 C 16.976562 -16.09375 16.664062 -16.460938 16.3125 -16.828125 C 15.957031 -17.203125 15.523438 -17.390625 15.015625 -17.390625 Z M 15.015625 -17.390625 "/></g></g></g><g fill="#ffffff" fill-opacity="1"><g transform="translate(487.64751, 293.02213)"><g><path d="M 10.296875 -4.46875 C 10.296875 -3.6875 10.132812 -2.988281 9.8125 -2.375 C 9.488281 -1.769531 9.066406 -1.265625 8.546875 -0.859375 C 8.023438 -0.453125 7.425781 -0.140625 6.75 0.078125 C 6.070312 0.296875 5.359375 0.40625 4.609375 0.40625 C 3.328125 0.40625 2.238281 0.0625 1.34375 -0.625 C 0.445312 -1.320312 0 -2.414062 0 -3.90625 C 0 -4.6875 0.148438 -5.378906 0.453125 -5.984375 C 0.753906 -6.585938 1.160156 -7.09375 1.671875 -7.5 C 2.179688 -7.90625 2.765625 -8.21875 3.421875 -8.4375 C 4.078125 -8.664062 4.765625 -8.78125 5.484375 -8.78125 C 6.867188 -8.78125 8.015625 -8.429688 8.921875 -7.734375 C 9.835938 -7.035156 10.296875 -5.945312 10.296875 -4.46875 Z M 10.296875 -4.46875 "/></g></g></g><g fill="#ffffff" fill-opacity="1"><g transform="translate(501.541131, 293.02213)"><g><path d="M 15.96875 -22.359375 C 20 -22.359375 22.925781 -21.648438 24.75 -20.234375 C 26.675781 -18.742188 27.640625 -16.273438 27.640625 -12.828125 C 27.640625 -10.703125 27.285156 -8.785156 26.578125 -7.078125 C 25.867188 -5.367188 24.867188 -3.957031 23.578125 -2.84375 C 21.015625 -0.675781 17.296875 0.40625 12.421875 0.40625 C 8.265625 0.40625 5.289062 -0.390625 3.5 -1.984375 C 1.570312 -3.640625 0.609375 -6.125 0.609375 -9.4375 C 0.609375 -11.632812 1.054688 -13.628906 1.953125 -15.421875 C 2.847656 -17.210938 4.140625 -18.695312 5.828125 -19.875 C 8.296875 -21.53125 11.675781 -22.359375 15.96875 -22.359375 Z M 12.53125 -3.046875 C 13.375 -3.046875 14.109375 -3.519531 14.734375 -4.46875 C 15.359375 -5.414062 15.851562 -6.570312 16.21875 -7.9375 C 16.59375 -9.300781 16.875 -10.71875 17.0625 -12.1875 C 17.25 -13.664062 17.34375 -14.945312 17.34375 -16.03125 C 17.34375 -16.976562 17.25 -17.695312 17.0625 -18.1875 C 16.875 -18.675781 16.476562 -18.921875 15.875 -18.921875 C 14.957031 -18.921875 14.171875 -18.425781 13.515625 -17.4375 C 12.859375 -16.457031 12.328125 -15.289062 11.921875 -13.9375 C 11.515625 -12.59375 11.21875 -11.207031 11.03125 -9.78125 C 10.84375 -8.363281 10.75 -7.21875 10.75 -6.34375 C 10.75 -4.144531 11.34375 -3.046875 12.53125 -3.046875 Z M 12.53125 -3.046875 "/></g></g></g><g fill="#ffffff" fill-opacity="1"><g transform="translate(530.697455, 293.02213)"><g><path d="M 4.109375 -21.8125 L 12.375 -21.8125 L 13.140625 -18 L 13.484375 -18 C 14.265625 -19.21875 15.265625 -20.25 16.484375 -21.09375 C 17.703125 -21.9375 19.304688 -22.359375 21.296875 -22.359375 C 21.429688 -22.359375 21.640625 -22.347656 21.921875 -22.328125 C 22.210938 -22.316406 22.535156 -22.269531 22.890625 -22.1875 C 23.253906 -22.101562 23.628906 -21.984375 24.015625 -21.828125 C 24.398438 -21.679688 24.78125 -21.472656 25.15625 -21.203125 L 22.921875 -10.75 L 17.390625 -10.75 C 17.328125 -12.84375 17.140625 -14.300781 16.828125 -15.125 C 16.523438 -15.957031 16.039062 -16.375 15.375 -16.375 C 15.03125 -16.375 14.660156 -16.296875 14.265625 -16.140625 C 13.878906 -15.992188 13.484375 -15.671875 13.078125 -15.171875 L 9.84375 0 L -0.5 0 Z M 4.109375 -21.8125 "/></g></g></g><g fill="#ffffff" fill-opacity="1"><g transform="translate(555.18877, 293.02213)"><g><path d="M 20.6875 -21.8125 L 28.90625 -21.8125 L 24.75 -2.078125 C 24.445312 -0.554688 23.941406 0.84375 23.234375 2.125 C 22.523438 3.414062 21.535156 4.53125 20.265625 5.46875 C 18.992188 6.414062 17.398438 7.160156 15.484375 7.703125 C 13.578125 8.242188 11.253906 8.515625 8.515625 8.515625 C 8.015625 8.515625 7.40625 8.503906 6.6875 8.484375 C 5.976562 8.472656 5.25 8.457031 4.5 8.4375 C 3.757812 8.425781 3.050781 8.398438 2.375 8.359375 C 1.707031 8.328125 1.171875 8.296875 0.765625 8.265625 L 1.71875 4.609375 C 2.800781 4.785156 3.910156 4.878906 5.046875 4.890625 C 6.179688 4.910156 7.15625 4.921875 7.96875 4.921875 C 8.976562 4.921875 9.828125 4.828125 10.515625 4.640625 C 11.210938 4.453125 11.789062 4.15625 12.25 3.75 C 12.707031 3.34375 13.078125 2.800781 13.359375 2.125 C 13.648438 1.445312 13.878906 0.617188 14.046875 -0.359375 L 14.65625 -3.65625 L 14.296875 -3.65625 C 14.097656 -3.34375 13.800781 -2.972656 13.40625 -2.546875 C 13.019531 -2.128906 12.519531 -1.726562 11.90625 -1.34375 C 11.300781 -0.957031 10.582031 -0.632812 9.75 -0.375 C 8.925781 -0.125 7.992188 0 6.953125 0 C 5.765625 0 4.753906 -0.175781 3.921875 -0.53125 C 3.097656 -0.882812 2.429688 -1.375 1.921875 -2 C 1.421875 -2.625 1.050781 -3.367188 0.8125 -4.234375 C 0.570312 -5.097656 0.453125 -6.035156 0.453125 -7.046875 C 0.453125 -7.484375 0.484375 -8.160156 0.546875 -9.078125 C 0.617188 -9.992188 0.78125 -11.023438 1.03125 -12.171875 C 1.289062 -13.316406 1.664062 -14.488281 2.15625 -15.6875 C 2.644531 -16.894531 3.300781 -17.988281 4.125 -18.96875 C 4.957031 -19.945312 5.988281 -20.753906 7.21875 -21.390625 C 8.457031 -22.035156 9.957031 -22.359375 11.71875 -22.359375 C 12.257812 -22.359375 12.847656 -22.304688 13.484375 -22.203125 C 14.128906 -22.109375 14.753906 -21.925781 15.359375 -21.65625 C 15.972656 -21.382812 16.515625 -20.992188 16.984375 -20.484375 C 17.460938 -19.984375 17.835938 -19.328125 18.109375 -18.515625 L 18.40625 -18.515625 Z M 15.015625 -17.390625 C 14.203125 -17.390625 13.523438 -16.957031 12.984375 -16.09375 C 12.441406 -15.238281 12 -14.234375 11.65625 -13.078125 C 11.320312 -11.929688 11.078125 -10.789062 10.921875 -9.65625 C 10.773438 -8.53125 10.703125 -7.695312 10.703125 -7.15625 C 10.703125 -6.476562 10.8125 -5.910156 11.03125 -5.453125 C 11.25 -4.992188 11.644531 -4.765625 12.21875 -4.765625 C 12.5625 -4.765625 12.890625 -4.847656 13.203125 -5.015625 C 13.523438 -5.191406 13.832031 -5.390625 14.125 -5.609375 C 14.414062 -5.828125 14.671875 -6.050781 14.890625 -6.28125 C 15.109375 -6.519531 15.269531 -6.707031 15.375 -6.84375 L 17.25 -15.71875 C 16.976562 -16.09375 16.664062 -16.460938 16.3125 -16.828125 C 15.957031 -17.203125 15.523438 -17.390625 15.015625 -17.390625 Z M 15.015625 -17.390625 "/></g></g></g></svg>